<svg version="1.1" xmlns="http://www.w3.org/2000/svg" viewBox="0 0 50 55.333343505859375" width="50" height="55.333343505859375">
  <!-- svg-source:excalidraw -->
  
  <defs>
    <style class="style-fonts">
      @font-face {
        font-family: "Virgil";
        src: url("https://excalidraw.com/Virgil.woff2");
      }
      @font-face {
        font-family: "Cascadia";
        src: url("https://excalidraw.com/Cascadia.woff2");
      }
    </style>
  </defs>
  <g stroke-opacity="0.9" fill-opacity="0.9" stroke-linecap="round" transform="translate(10 10) rotate(0 15 17.666671752929688)"><path d="M19.23 4.38 L29.68 19.09 L19.91 31.07 L17.35 33.74 L1.76 17.93 L12.92 2.81 L15.06 2.92 L19.94 2.67" stroke="none" stroke-width="0" fill="#228be6"></path><path d="M20 4.5 M20 4.5 C22.56 6.75, 23.28 10.3, 26 13.5 M20 4.5 C22.1 7.56, 24.2 11.36, 26 13.5 M26 13.5 C29.39 19.42, 28.59 19.82, 26 22.5 M26 13.5 C29.06 16.56, 29.32 19.12, 26 22.5 M26 22.5 C23.93 25.2, 23.59 26.75, 20 30.83 M26 22.5 C24.83 24.14, 23.41 26, 20 30.83 M20 30.83 C17.03 34.36, 16.69 36.31, 12 30.83 M20 30.83 C17.36 33.59, 16.2 35.23, 12 30.83 M12 30.83 C9.57 28, 9.01 27.48, 4 22.5 M12 30.83 C10.69 29.38, 8.69 26.91, 4 22.5 M4 22.5 C-1.59 18.85, -1.09 18.84, 4 13.5 M4 22.5 C1.62 18.02, -0.22 16.35, 4 13.5 M4 13.5 C6.49 12, 8.97 7.35, 12 4.5 M4 13.5 C6.03 10.62, 8.17 8.3, 12 4.5 M12 4.5 C16.63 1.2, 16 -1.16, 20 4.5 M12 4.5 C15.09 -0.02, 15.08 -1.38, 20 4.5" stroke="#000000" stroke-width="1" fill="none"></path></g></svg>