<svg version="1.1" xmlns="http://www.w3.org/2000/svg" viewBox="0 0 71.33331298828125 56.666656494140625" width="71.33331298828125" height="56.666656494140625">
  <!-- svg-source:excalidraw -->
  
  <defs>
    <style class="style-fonts">
      @font-face {
        font-family: "Virgil";
        src: url("https://excalidraw.com/Virgil.woff2");
      }
      @font-face {
        font-family: "Cascadia";
        src: url("https://excalidraw.com/Cascadia.woff2");
      }
    </style>
  </defs>
  <g stroke-linecap="round" transform="translate(10 10) rotate(0 25.666656494140625 13.666656494140625)"><path d="M6.83 0 M6.83 0 C20.16 -0.12, 38.03 0.52, 44.5 0 M6.83 0 C19.17 0.67, 32.42 -0.38, 44.5 0 M44.5 0 C48.07 1.67, 51.93 3.58, 51.33 6.83 M44.5 0 C50.33 1, 51.46 1.27, 51.33 6.83 M51.33 6.83 C51.36 12.33, 50.4 16.13, 51.33 20.5 M51.33 6.83 C51.45 11.25, 50.78 16.81, 51.33 20.5 M51.33 20.5 C51.16 26.97, 47.86 27.52, 44.5 27.33 M51.33 20.5 C50.38 24.47, 48.17 27.2, 44.5 27.33 M44.5 27.33 C32.16 28.67, 18.88 28.08, 6.83 27.33 M44.5 27.33 C32.86 28.39, 22.13 26.58, 6.83 27.33 M6.83 27.33 C1.68 26.16, 1.57 26.9, 0 20.5 M6.83 27.33 C2 27.52, 2.09 26.58, 0 20.5 M0 20.5 C-0.59 14.77, 0.69 9.94, 0 6.83 M0 20.5 C-0.18 15.01, -0.11 10.7, 0 6.83 M0 6.83 C-1.46 3.64, 2.45 -1.49, 6.83 0 M0 6.83 C1.79 2.85, 3.31 -1.71, 6.83 0" stroke="#000000" stroke-width="1" fill="none"></path></g><g stroke-opacity="0.9" fill-opacity="0.9" stroke-linecap="round" transform="translate(14.66668701171875 33.000030517578125) rotate(0 7.333343505859375 6.666656494140625)"><path d="M11.5 1.36 C13.01 1.96, 14.33 3.41, 14.76 4.55 C15.19 5.68, 14.71 6.8, 14.07 8.17 C13.43 9.54, 12.22 11.81, 10.91 12.78 C9.61 13.75, 7.81 14.1, 6.21 14 C4.62 13.9, 2.42 13.44, 1.32 12.18 C0.22 10.92, -0.36 7.96, -0.39 6.47 C-0.43 4.97, 0.25 4.14, 1.13 3.2 C2.01 2.27, 3.11 1.31, 4.87 0.87 C6.64 0.42, 10.33 0.28, 11.72 0.52 C13.12 0.77, 13.25 2.24, 13.24 2.33 M4.36 0.87 C5.82 0.36, 7.9 0.7, 9.34 1.21 C10.78 1.73, 12.03 2.68, 13.02 3.95 C14 5.22, 15.64 7.49, 15.27 8.83 C14.9 10.17, 12.16 11.38, 10.81 11.98 C9.45 12.58, 8.73 12.61, 7.14 12.44 C5.54 12.26, 2.54 11.88, 1.24 10.92 C-0.06 9.96, -0.8 7.81, -0.66 6.68 C-0.53 5.55, 1.32 5.34, 2.06 4.13 C2.8 2.93, 3.44 -0.14, 3.76 -0.57 C4.08 -1, 3.55 1.21, 3.98 1.54" stroke="none" stroke-width="0" fill="#228be6"></path><path d="M9.92 -0.49 C11.25 -0.19, 12.26 2.14, 13.09 3.34 C13.91 4.54, 15.04 5.23, 14.85 6.72 C14.65 8.22, 13.04 11.11, 11.91 12.31 C10.79 13.52, 9.51 13.94, 8.12 13.97 C6.72 14, 4.86 13.51, 3.56 12.48 C2.25 11.46, 0.72 9.28, 0.27 7.82 C-0.19 6.35, 0.14 4.9, 0.81 3.7 C1.49 2.49, 2.64 1.24, 4.34 0.59 C6.05 -0.06, 9.87 -0.34, 11.04 -0.19 C12.22 -0.05, 11.43 1.17, 11.37 1.46 M7.8 -0.13 C9.7 -0.12, 12.33 -0.18, 13.48 0.66 C14.62 1.5, 14.72 3.42, 14.69 4.88 C14.67 6.34, 14.13 8, 13.31 9.42 C12.48 10.85, 11.03 12.86, 9.76 13.44 C8.48 14.01, 7.08 13.27, 5.64 12.87 C4.21 12.46, 2.14 12.15, 1.16 11.02 C0.18 9.89, -0.47 7.84, -0.24 6.08 C-0.01 4.33, 1.2 1.6, 2.56 0.47 C3.93 -0.66, 6.94 -0.64, 7.96 -0.71 C8.98 -0.77, 9.01 -0.07, 8.68 0.09" stroke="#000000" stroke-width="1" fill="none"></path></g><g stroke-opacity="0.9" fill-opacity="0.9" stroke-linecap="round" transform="translate(42.999969482421875 33.333343505859375) rotate(0 7.333343505859375 6.666656494140625)"><path d="M7.55 0.72 C9.11 0.35, 11.16 0.36, 12.25 1.01 C13.34 1.66, 13.72 3.24, 14.09 4.63 C14.46 6.02, 14.98 8.1, 14.46 9.34 C13.94 10.58, 12.34 11.52, 10.96 12.08 C9.58 12.63, 7.89 12.99, 6.16 12.65 C4.43 12.31, 1.53 11.29, 0.59 10.05 C-0.35 8.8, 0.14 6.53, 0.54 5.18 C0.93 3.82, 1.65 2.61, 2.97 1.92 C4.28 1.22, 7.02 1.04, 8.43 0.99 C9.85 0.94, 11.48 1.75, 11.45 1.61 M5.28 -0.21 C6.66 -0.79, 9.08 -1.05, 10.56 -0.35 C12.04 0.36, 13.36 2.86, 14.17 4.03 C14.99 5.19, 15.77 5.36, 15.45 6.64 C15.12 7.91, 13.71 10.78, 12.22 11.68 C10.73 12.58, 8.21 12.16, 6.49 12.06 C4.77 11.95, 3.11 11.58, 1.88 11.05 C0.65 10.52, -0.9 10.36, -0.9 8.88 C-0.9 7.4, 1.07 3.77, 1.86 2.19 C2.65 0.61, 3.18 -0.52, 3.85 -0.6 C4.52 -0.68, 5.61 1.5, 5.88 1.69" stroke="none" stroke-width="0" fill="#228be6"></path><path d="M8.14 -0.19 C9.62 -0.03, 12.54 1.71, 13.52 2.81 C14.5 3.92, 13.98 5, 14 6.44 C14.01 7.88, 14.43 10.22, 13.59 11.45 C12.76 12.68, 10.59 13.67, 8.97 13.83 C7.34 13.98, 5.36 13.2, 3.85 12.36 C2.34 11.51, 0.46 10.13, -0.09 8.76 C-0.65 7.38, -0.15 5.28, 0.52 4.11 C1.19 2.93, 2.42 2.2, 3.95 1.73 C5.47 1.25, 8.29 1.18, 9.66 1.26 C11.03 1.35, 12.01 2.26, 12.14 2.25 M4.76 1.81 C6.23 1.23, 7.62 0.36, 9 0.56 C10.39 0.76, 12.27 1.8, 13.1 3.01 C13.92 4.21, 14.07 6.19, 13.97 7.79 C13.87 9.4, 13.63 11.67, 12.51 12.63 C11.38 13.58, 8.69 13.72, 7.2 13.51 C5.72 13.3, 4.67 12.35, 3.59 11.38 C2.5 10.42, 1.28 8.96, 0.67 7.72 C0.06 6.47, -0.66 4.91, -0.08 3.91 C0.51 2.92, 3.35 2.53, 4.18 1.73 C5.01 0.93, 4.8 -0.6, 4.89 -0.86" stroke="#000000" stroke-width="1" fill="none"></path></g></svg>