<svg version="1.1" xmlns="http://www.w3.org/2000/svg" viewBox="0 0 50 55.333343505859375" width="50" height="55.333343505859375">
  <!-- svg-source:excalidraw -->
  
  <defs>
    <style class="style-fonts">
      @font-face {
        font-family: "Virgil";
        src: url("https://excalidraw.com/Virgil.woff2");
      }
      @font-face {
        font-family: "Cascadia";
        src: url("https://excalidraw.com/Cascadia.woff2");
      }
    </style>
  </defs>
  <g stroke-opacity="0.9" fill-opacity="0.9" stroke-linecap="round" transform="translate(10 10) rotate(0 15 17.666671752929688)"><path d="M20.22 5.63 L29.86 18.73 L21.07 29.32 L15.32 34.98 L1.45 16.67 L13.39 3.64 L16.59 2.43 L21.11 5.37" stroke="none" stroke-width="0" fill="#82c91e"></path><path d="M20 4.5 M20 4.5 C21.76 7.21, 23.65 11.04, 26 13.5 M20 4.5 C21.92 6.79, 22.85 8.28, 26 13.5 M26 13.5 C28.04 18.63, 29.83 19.91, 26 22.5 M26 13.5 C28.62 18.21, 29.05 17.42, 26 22.5 M26 22.5 C24.98 24.65, 22.98 27.58, 20 30.83 M26 22.5 C24 25.02, 22.47 27.57, 20 30.83 M20 30.83 C15.94 33.5, 15.4 34.16, 12 30.83 M20 30.83 C17.8 37.45, 15.72 35.52, 12 30.83 M12 30.83 C9.46 27.29, 5.26 23.82, 4 22.5 M12 30.83 C8.77 28.45, 6.09 24.59, 4 22.5 M4 22.5 C-0.59 18.98, -1.46 19.36, 4 13.5 M4 22.5 C0.2 16.29, 1.79 18.57, 4 13.5 M4 13.5 C5.97 11.02, 9.12 7.75, 12 4.5 M4 13.5 C6.23 11.51, 8.44 8.44, 12 4.5 M12 4.5 C16.18 -0.09, 14.81 -1.7, 20 4.5 M12 4.5 C14.81 -1.16, 14.43 1.55, 20 4.5" stroke="#000000" stroke-width="1" fill="none"></path></g></svg>