<svg version="1.1" xmlns="http://www.w3.org/2000/svg" viewBox="0 0 636.4134132748152 550.385040295289" width="636.4134132748152" height="550.385040295289">
  <!-- svg-source:excalidraw -->
  
  <defs>
    <style class="style-fonts">
      @font-face {
        font-family: "Virgil";
        src: url("https://excalidraw.com/Virgil.woff2");
      }
      @font-face {
        font-family: "Cascadia";
        src: url("https://excalidraw.com/Cascadia.woff2");
      }
    </style>
  </defs>
  <g stroke-linecap="round"><g transform="translate(363.6837847229092 131.0252302493535) rotate(0 67.8155435975641 -39.212065389076145)"><path d="M-0.42 0.69 C8.23 -7.7, 28.44 -38.28, 51.19 -51.58 C73.93 -64.88, 122.11 -74.42, 136.05 -79.12 M1.57 0.01 C10.16 -8.59, 28.16 -40.13, 50.51 -53.14 C72.86 -66.15, 121.62 -73.68, 135.66 -78.03" stroke="#000000" stroke-width="1" fill="none"></path></g></g><mask></mask><g stroke-linecap="round"><g transform="translate(493.58850884400283 54.331596949665595) rotate(0 57.582190523287295 6.078181745621009)"><path d="M0.69 0.52 C15.3 -6.29, 67.26 -50.44, 86.41 -41.29 C105.55 -32.13, 110.81 39.21, 115.56 55.46 M-0.4 -0.25 C14.24 -7.37, 66.86 -52.49, 86.02 -43.03 C105.19 -33.58, 109.81 39.75, 114.57 56.49" stroke="#000000" stroke-width="1" fill="none"></path></g></g><mask></mask><g stroke-linecap="round"><g transform="translate(610.2551958557219 203.6649251967359) rotate(0 3.28149636497983 68.12128387141973)"><path d="M0.52 1.07 C3.26 9.55, 17.56 29.26, 16.05 51.56 C14.54 73.87, -4.56 120.67, -8.54 134.91 M-0.67 0.59 C2.02 9.18, 16.96 30.36, 15.47 52.87 C13.98 75.38, -5.77 121.98, -9.6 135.65" stroke="#000000" stroke-width="1" fill="none"></path></g></g><mask></mask><g stroke-linecap="round"><g transform="translate(602.9218218322844 338.3315816908762) rotate(0 -31.676268016919494 28.1105167158795)"><path d="M1.07 0.71 C-3 -0.69, -12.85 -18.79, -23.77 -7.88 C-34.69 3.03, -57.99 53.75, -64.43 66.17 M0.18 0.04 C-4.15 -1.25, -14.57 -17.88, -24.95 -6.63 C-35.33 4.63, -55.99 55.74, -62.11 67.58" stroke="#000000" stroke-width="1" fill="none"></path></g></g><mask></mask><g stroke-linecap="round"><g transform="translate(539.2075186793826 400.4268357715123) rotate(0 -49.56247658906506 -5.162398991074383)"><path d="M0.71 -0.44 C-8.58 -4.69, -38.56 -26.88, -55.21 -24.43 C-71.86 -21.97, -91.91 8.15, -99.16 14.29 M-0.37 -1.71 C-9.91 -5.34, -39.87 -25.82, -56.44 -23.46 C-73.02 -21.1, -92.89 6.37, -99.84 12.45" stroke="#000000" stroke-width="1" fill="none"></path></g></g><mask></mask><g stroke-linecap="round"><g transform="translate(439.874144655945 411.0934922656529) rotate(0 12.316159896991167 62.040217285975814)"><path d="M-0.44 -0.54 C3.2 4.81, 21.78 11.98, 22.91 32.84 C24.03 53.7, 9.37 109.24, 6.29 124.62 M1.54 1.78 C5.44 7.3, 24.29 14.33, 25.04 34.46 C25.79 54.6, 9.51 107.82, 6.03 122.61" stroke="#000000" stroke-width="1" fill="none"></path></g></g><mask></mask><g stroke-linecap="round"><g transform="translate(446.2551958557217 535.0935227832315) rotate(0 -22.73741751723776 -14.14849566597286)"><path d="M-0.54 -1.09 C-7.52 -0.42, -33.58 9.04, -41.16 3.62 C-48.75 -1.79, -45.31 -27.63, -46.04 -33.59 M1.37 0.95 C-5.81 1.34, -34.05 7.62, -42.02 2.01 C-50 -3.61, -45.43 -26.68, -46.48 -32.75" stroke="#000000" stroke-width="1" fill="none"></path></g></g><mask></mask><g stroke-linecap="round"><g transform="translate(398.9218218322842 503.760148759794) rotate(0 -48.52802126617172 -31.544934030910554)"><path d="M-1.09 0.17 C-8.64 0.37, -29.63 11.8, -45.71 0.62 C-61.79 -10.55, -89.18 -55.36, -97.59 -66.86 M0.53 -0.78 C-7.05 -0.89, -30.2 10.13, -46.15 -1.17 C-62.11 -12.47, -86.93 -57.55, -95.18 -68.61" stroke="#000000" stroke-width="1" fill="none"></path></g></g><mask></mask><g stroke-linecap="round"><g transform="translate(302.2551958557218 435.09349226565337) rotate(0 -56.42940749196333 12.9516790827372)"><path d="M0.17 0.96 C-10.52 5.43, -45.87 25.71, -64.71 25.74 C-83.55 25.78, -104.58 5.43, -112.86 1.18 M-1.2 0.42 C-11.95 5.11, -46.69 27.02, -65.33 26.8 C-83.97 26.58, -104.86 3.38, -113.03 -0.9" stroke="#000000" stroke-width="1" fill="none"></path></g></g><mask></mask><g stroke-linecap="round"><g transform="translate(188.9218218322843 435.09349226565337) rotate(0 -63.51406486258841 -15.939678036056875)"><path d="M0.96 0.62 C-9.57 -4.21, -42.85 -23.58, -64.26 -28.86 C-85.66 -34.14, -116.79 -30.71, -127.49 -31.06 M0 -0.09 C-10.06 -5.25, -40.7 -25.41, -62.03 -30.39 C-83.36 -35.36, -116.92 -30.01, -127.99 -29.95" stroke="#000000" stroke-width="1" fill="none"></path></g></g><mask></mask><g stroke-linecap="round"><g transform="translate(62.92182183228431 405.0934922656529) rotate(0 -25.37313157750293 -9.759425849888999)"><path d="M0.62 -0.92 C-4.55 1.23, -22.36 19.43, -30.86 13.84 C-39.37 8.26, -47.16 -26.46, -50.4 -34.42 M-0.51 1.21 C-5.75 2.91, -22.73 17.75, -31.21 11.99 C-39.69 6.23, -48.2 -25.86, -51.37 -33.33" stroke="#000000" stroke-width="1" fill="none"></path></g></g><mask></mask><g stroke-linecap="round"><g transform="translate(10.921821832284309 371.0934922656529) rotate(0 22.395649715434416 -36.25218094028537)"><path d="M-0.92 1.14 C6.45 -1.59, 40.98 -3.27, 45.18 -15.73 C49.37 -28.19, 27.65 -64.22, 24.24 -73.64 M0.8 0.69 C7.97 -1.92, 40.75 -2.2, 44.5 -14.4 C48.24 -26.6, 26.51 -62.51, 23.26 -72.49" stroke="#000000" stroke-width="1" fill="none"></path></g></g><mask></mask><g stroke-linecap="round"><g transform="translate(35.964586520115404 297.09349226565337) rotate(0 -9.247985637469554 -54.38390443918394)"><path d="M1.14 0.51 C1.9 -8.56, 9.37 -37.02, 5.18 -55.32 C0.99 -73.62, -19.38 -100.34, -24.02 -109.28 M0.28 -0.27 C0.79 -9.09, 8.23 -36.06, 4.03 -54.01 C-0.18 -71.95, -20.03 -98.99, -24.95 -107.93" stroke="#000000" stroke-width="1" fill="none"></path></g></g><mask></mask><g stroke-linecap="round"><g transform="translate(13.874159914733923 187.76016401858294) rotate(0 1.123990158970173 -27.89090597151784)"><path d="M0.51 -0.4 C1.26 -6.53, 3.76 -26.78, 3.58 -35.64 C3.39 -44.51, 0.04 -50.5, -0.61 -53.6 M-0.68 -1.65 C-0.04 -7.09, 2.52 -25.31, 2.41 -34.27 C2.3 -43.22, -0.97 -52.27, -1.34 -55.39" stroke="#000000" stroke-width="1" fill="none"></path></g></g><mask></mask><g stroke-linecap="round"><g transform="translate(14.921821832284309 132.99825344380622) rotate(0 58.000809985026734 -1.9155784880981628)"><path d="M-0.4 -0.42 C11.36 1.28, 52.22 13.04, 71.69 10.73 C91.16 8.42, 109.06 -9.91, 116.4 -14.27 M1.6 -1.69 C13.07 0.18, 51.48 14.75, 70.58 12.3 C89.68 9.84, 108.59 -11.91, 116.19 -16.41" stroke="#000000" stroke-width="1" fill="none"></path></g></g><mask></mask><g stroke-linecap="round"><g transform="translate(131.87414465594486 115.09346174807513) rotate(0 18.2488092941187 32.773025115886696)"><path d="M-0.42 -0.31 C5.28 1.71, 29.15 0.5, 34.73 11.73 C40.31 22.96, 33.53 57.78, 33.06 67.06 M1.56 -1.52 C7.06 0.23, 28.65 -0.91, 33.81 10.17 C38.97 21.24, 32.84 55.74, 32.5 64.93" stroke="#000000" stroke-width="1" fill="none"></path></g></g><mask></mask><g stroke-linecap="round"><g transform="translate(165.58850884400306 184.2858364765956) rotate(0 30.37702440582217 16.67370469090639)"><path d="M-0.31 0.06 C3.27 5.7, 10.84 29.34, 21.06 33.43 C31.29 37.52, 54.33 25.97, 61.06 24.61 M1.73 -0.95 C5.28 4.36, 10.88 27.1, 20.68 31.51 C30.47 35.93, 53.6 26.4, 60.51 25.54" stroke="#000000" stroke-width="1" fill="none"></path></g></g><mask></mask><g stroke-linecap="round"><g transform="translate(226.6360988272619 203.95067871933645) rotate(0 92.86158862402664 -0.5489068222227615)"><path d="M0.06 1.06 C25.42 3.74, 120.97 18.45, 151.73 15.73 C182.48 13.02, 179 -10.06, 184.59 -15.23 M-1.37 0.58 C23.91 2.91, 119.58 16.77, 150.99 13.82 C182.4 10.86, 181.34 -11.95, 187.09 -17.16" stroke="#000000" stroke-width="1" fill="none"></path></g></g><mask></mask><g stroke-linecap="round"><g transform="translate(417.6837847229092 189.6649251967359) rotate(0 -26.926153615843475 -25.804009191748776)"><path d="M1.06 0.4 C-4.82 0.93, -26.33 13.22, -35.6 3.25 C-44.87 -6.71, -51.39 -48.83, -54.56 -59.4 M0.16 -0.44 C-5.81 0.22, -27.16 14.01, -36.34 4.4 C-45.52 -5.21, -51.98 -47.46, -54.92 -58.12" stroke="#000000" stroke-width="1" fill="none"></path></g></g><mask></mask><g stroke-linecap="round"><g transform="translate(608.9218218322844 112.33161220845466) rotate(0 3.6856966551777077 44.47265469119884)"><path d="M0.4 0.4 C1.48 8.02, 6.78 31.94, 6.59 46.77 C6.4 61.61, 0.62 82.21, -0.74 89.39 M-0.86 -0.44 C0.61 7.36, 9.02 30.42, 8.91 45.06 C8.79 59.7, 0.24 80.28, -1.54 87.42" stroke="#000000" stroke-width="1" fill="none"></path></g></g><mask></mask></svg>