<svg version="1.1" xmlns="http://www.w3.org/2000/svg" viewBox="0 0 50 55.333343505859375" width="50" height="55.333343505859375">
  <!-- svg-source:excalidraw -->
  
  <defs>
    <style class="style-fonts">
      @font-face {
        font-family: "Virgil";
        src: url("https://excalidraw.com/Virgil.woff2");
      }
      @font-face {
        font-family: "Cascadia";
        src: url("https://excalidraw.com/Cascadia.woff2");
      }
    </style>
  </defs>
  <g stroke-opacity="0.9" fill-opacity="0.9" stroke-linecap="round" transform="translate(10 10) rotate(0 15 17.666671752929688)"><path d="M21.13 5.36 L29.73 19.07 L18.48 30.15 L16.77 34.65 L-0.33 17.01 L16.04 2.56 L17.3 2.23 L20.87 4.61" stroke="none" stroke-width="0" fill="#fa5252"></path><path d="M20 4.5 M20 4.5 C21.51 6.83, 24.12 8.38, 26 13.5 M20 4.5 C22.49 7.76, 24.1 10.54, 26 13.5 M26 13.5 C30.63 17.83, 31.91 16.8, 26 22.5 M26 13.5 C30.21 17.05, 29.42 17.12, 26 22.5 M26 22.5 C24.22 25.1, 23.19 27.19, 20 30.83 M26 22.5 C24.18 25.03, 22.4 28.08, 20 30.83 M20 30.83 C14.17 34.74, 14.83 36.9, 12 30.83 M20 30.83 C18.12 35.05, 16.19 37.42, 12 30.83 M12 30.83 C8.66 27.4, 5.52 25.42, 4 22.5 M12 30.83 C10.31 28.3, 7.27 26.12, 4 22.5 M4 22.5 C0.98 16.54, 1.36 18.17, 4 13.5 M4 22.5 C-1.71 19.79, 0.57 19.04, 4 13.5 M4 13.5 C6.44 11.06, 8.08 8.99, 12 4.5 M4 13.5 C7.15 10.67, 9.21 7.2, 12 4.5 M12 4.5 C15.91 -1.19, 14.3 -1.04, 20 4.5 M12 4.5 C14.84 -1.57, 17.55 1.39, 20 4.5" stroke="#000000" stroke-width="1" fill="none"></path></g></svg>